<?xml version="1.0" encoding="UTF-8"?>
<svg xmlns="http://www.w3.org/2000/svg" xmlns:xlink="http://www.w3.org/1999/xlink" width="39pt" height="39pt" viewBox="0 0 39 39" version="1.1">
<g id="surface1">
<path style=" stroke:none;fill-rule:nonzero;fill:rgb(0%,0%,0%);fill-opacity:1;" d="M 38.152344 22.027344 C 37.566406 21.867188 36.921875 22.203125 36.753906 22.835938 L 36.726562 22.933594 L 34.082031 22.222656 C 34.246094 21.339844 34.335938 20.429688 34.335938 19.5 C 34.335938 18.570312 34.246094 17.660156 34.082031 16.773438 L 36.726562 16.066406 L 36.753906 16.164062 C 36.921875 16.796875 37.566406 17.132812 38.152344 16.972656 C 38.761719 16.808594 39.125 16.183594 38.960938 15.574219 L 38.316406 13.167969 C 38.152344 12.558594 37.527344 12.199219 36.917969 12.363281 C 36.308594 12.523438 35.945312 13.152344 36.109375 13.761719 L 36.136719 13.859375 L 33.492188 14.566406 C 32.875 12.824219 31.941406 11.230469 30.761719 9.855469 L 32.703125 7.914062 L 32.773438 7.984375 C 33.222656 8.433594 33.945312 8.433594 34.390625 7.984375 C 34.835938 7.539062 34.835938 6.816406 34.390625 6.371094 L 32.628906 4.609375 C 32.183594 4.164062 31.460938 4.164062 31.015625 4.609375 C 30.566406 5.054688 30.566406 5.777344 31.015625 6.226562 L 31.085938 6.296875 L 29.144531 8.238281 C 27.769531 7.058594 26.175781 6.125 24.429688 5.507812 L 25.140625 2.863281 L 25.238281 2.890625 C 25.871094 3.0625 26.480469 2.667969 26.636719 2.082031 C 26.800781 1.472656 26.441406 0.847656 25.832031 0.683594 L 23.425781 0.0390625 C 22.816406 -0.125 22.191406 0.238281 22.027344 0.847656 C 21.863281 1.457031 22.226562 2.082031 22.835938 2.246094 L 22.933594 2.273438 L 22.222656 4.917969 C 21.339844 4.753906 20.429688 4.664062 19.5 4.664062 C 18.570312 4.664062 17.660156 4.753906 16.777344 4.917969 L 16.066406 2.273438 L 16.164062 2.246094 C 16.773438 2.082031 17.136719 1.457031 16.972656 0.847656 C 16.808594 0.238281 16.183594 -0.125 15.574219 0.0390625 L 13.167969 0.683594 C 12.558594 0.847656 12.199219 1.472656 12.363281 2.082031 C 12.519531 2.667969 13.128906 3.0625 13.761719 2.890625 L 13.859375 2.863281 L 14.570312 5.507812 C 12.824219 6.125 11.230469 7.058594 9.855469 8.238281 L 7.914062 6.296875 L 7.984375 6.226562 C 8.433594 5.777344 8.433594 5.054688 7.984375 4.609375 C 7.539062 4.164062 6.816406 4.164062 6.371094 4.609375 L 4.609375 6.371094 C 4.164062 6.816406 4.164062 7.539062 4.609375 7.984375 C 5.054688 8.433594 5.78125 8.433594 6.226562 7.984375 L 6.296875 7.914062 L 8.238281 9.855469 C 7.058594 11.230469 6.125 12.824219 5.507812 14.566406 L 2.863281 13.859375 L 2.890625 13.761719 C 3.054688 13.152344 2.691406 12.523438 2.082031 12.359375 C 1.472656 12.199219 0.847656 12.558594 0.683594 13.167969 L 0.0390625 15.574219 C -0.125 16.183594 0.238281 16.808594 0.847656 16.972656 C 1.433594 17.132812 2.078125 16.796875 2.246094 16.164062 L 2.273438 16.066406 L 4.917969 16.773438 C 4.753906 17.660156 4.664062 18.570312 4.664062 19.5 C 4.664062 20.429688 4.75 21.339844 4.917969 22.222656 L 2.273438 22.933594 L 2.246094 22.835938 C 2.078125 22.203125 1.433594 21.867188 0.847656 22.027344 C 0.238281 22.191406 -0.125 22.816406 0.0390625 23.425781 L 0.683594 25.832031 C 0.847656 26.441406 1.472656 26.800781 2.082031 26.636719 C 2.691406 26.476562 3.054688 25.847656 2.890625 25.238281 L 2.863281 25.140625 L 5.507812 24.429688 C 6.125 26.175781 7.058594 27.769531 8.238281 29.144531 L 6.296875 31.085938 L 6.226562 31.015625 C 5.777344 30.566406 5.054688 30.566406 4.609375 31.015625 C 4.164062 31.460938 4.164062 32.183594 4.609375 32.628906 L 6.371094 34.390625 C 6.816406 34.835938 7.539062 34.835938 7.984375 34.390625 C 8.429688 33.945312 8.429688 33.222656 7.984375 32.773438 L 7.914062 32.703125 L 9.855469 30.761719 C 11.230469 31.941406 12.824219 32.875 14.566406 33.492188 L 13.859375 36.136719 L 13.761719 36.109375 C 13.128906 35.9375 12.519531 36.332031 12.363281 36.917969 C 12.199219 37.527344 12.558594 38.152344 13.167969 38.316406 L 15.574219 38.960938 C 16.183594 39.125 16.808594 38.761719 16.972656 38.152344 C 17.136719 37.542969 16.773438 36.917969 16.164062 36.753906 L 16.066406 36.726562 L 16.773438 34.082031 C 17.660156 34.246094 18.570312 34.335938 19.5 34.335938 C 20.429688 34.335938 21.339844 34.246094 22.222656 34.082031 L 22.933594 36.726562 L 22.832031 36.753906 C 22.222656 36.917969 21.863281 37.542969 22.027344 38.152344 C 22.1875 38.761719 22.816406 39.125 23.425781 38.960938 L 25.832031 38.316406 C 26.441406 38.152344 26.800781 37.527344 26.636719 36.917969 C 26.480469 36.332031 25.871094 35.9375 25.238281 36.109375 L 25.140625 36.136719 L 24.429688 33.492188 C 26.175781 32.875 27.769531 31.941406 29.144531 30.761719 L 31.085938 32.703125 L 31.015625 32.773438 C 30.566406 33.222656 30.566406 33.945312 31.015625 34.390625 C 31.460938 34.835938 32.183594 34.835938 32.628906 34.390625 L 34.390625 32.628906 C 34.835938 32.183594 34.835938 31.460938 34.390625 31.015625 C 33.945312 30.566406 33.21875 30.566406 32.773438 31.015625 L 32.703125 31.085938 L 30.761719 29.144531 C 31.941406 27.769531 32.875 26.175781 33.492188 24.429688 L 36.136719 25.140625 L 36.109375 25.238281 C 35.945312 25.847656 36.308594 26.476562 36.917969 26.636719 C 37.527344 26.800781 38.152344 26.441406 38.316406 25.832031 L 38.960938 23.425781 C 39.125 22.816406 38.761719 22.191406 38.152344 22.027344 Z M 19.5 32.050781 C 12.578125 32.050781 6.949219 26.421875 6.949219 19.5 C 6.949219 12.578125 12.578125 6.949219 19.5 6.949219 C 26.421875 6.949219 32.050781 12.578125 32.050781 19.5 C 32.050781 26.421875 26.421875 32.050781 19.5 32.050781 Z M 19.5 32.050781 "/>
<path style=" stroke:none;fill-rule:nonzero;fill:rgb(0%,0%,0%);fill-opacity:1;" d="M 20.640625 10.933594 C 20.640625 11.5625 20.132812 12.074219 19.5 12.074219 C 18.867188 12.074219 18.359375 11.5625 18.359375 10.933594 C 18.359375 10.300781 18.867188 9.789062 19.5 9.789062 C 20.132812 9.789062 20.640625 10.300781 20.640625 10.933594 Z M 20.640625 10.933594 "/>
<path style=" stroke:none;fill-rule:nonzero;fill:rgb(0%,0%,0%);fill-opacity:1;" d="M 20.640625 28.066406 C 20.640625 28.699219 20.132812 29.210938 19.5 29.210938 C 18.867188 29.210938 18.359375 28.699219 18.359375 28.066406 C 18.359375 27.4375 18.867188 26.925781 19.5 26.925781 C 20.132812 26.925781 20.640625 27.4375 20.640625 28.066406 Z M 20.640625 28.066406 "/>
<path style=" stroke:none;fill-rule:nonzero;fill:rgb(0%,0%,0%);fill-opacity:1;" d="M 18.195312 21.949219 C 18.195312 22.578125 17.683594 23.089844 17.050781 23.089844 C 16.421875 23.089844 15.910156 22.578125 15.910156 21.949219 C 15.910156 21.316406 16.421875 20.804688 17.050781 20.804688 C 17.683594 20.804688 18.195312 21.316406 18.195312 21.949219 Z M 18.195312 21.949219 "/>
<path style=" stroke:none;fill-rule:nonzero;fill:rgb(0%,0%,0%);fill-opacity:1;" d="M 23.089844 21.949219 C 23.089844 22.578125 22.578125 23.089844 21.949219 23.089844 C 21.316406 23.089844 20.804688 22.578125 20.804688 21.949219 C 20.804688 21.316406 21.316406 20.804688 21.949219 20.804688 C 22.578125 20.804688 23.089844 21.316406 23.089844 21.949219 Z M 23.089844 21.949219 "/>
<path style=" stroke:none;fill-rule:nonzero;fill:rgb(0%,0%,0%);fill-opacity:1;" d="M 23.089844 17.050781 C 23.089844 17.683594 22.578125 18.195312 21.949219 18.195312 C 21.316406 18.195312 20.804688 17.683594 20.804688 17.050781 C 20.804688 16.421875 21.316406 15.910156 21.949219 15.910156 C 22.578125 15.910156 23.089844 16.421875 23.089844 17.050781 Z M 23.089844 17.050781 "/>
<path style=" stroke:none;fill-rule:nonzero;fill:rgb(0%,0%,0%);fill-opacity:1;" d="M 18.195312 17.050781 C 18.195312 17.683594 17.683594 18.195312 17.050781 18.195312 C 16.421875 18.195312 15.910156 17.683594 15.910156 17.050781 C 15.910156 16.421875 16.421875 15.910156 17.050781 15.910156 C 17.683594 15.910156 18.195312 16.421875 18.195312 17.050781 Z M 18.195312 17.050781 "/>
<path style=" stroke:none;fill-rule:nonzero;fill:rgb(0%,0%,0%);fill-opacity:1;" d="M 29.210938 19.5 C 29.210938 20.132812 28.699219 20.640625 28.066406 20.640625 C 27.4375 20.640625 26.925781 20.132812 26.925781 19.5 C 26.925781 18.867188 27.4375 18.359375 28.066406 18.359375 C 28.699219 18.359375 29.210938 18.867188 29.210938 19.5 Z M 29.210938 19.5 "/>
<path style=" stroke:none;fill-rule:nonzero;fill:rgb(0%,0%,0%);fill-opacity:1;" d="M 12.074219 19.5 C 12.074219 20.132812 11.5625 20.640625 10.933594 20.640625 C 10.300781 20.640625 9.789062 20.132812 9.789062 19.5 C 9.789062 18.867188 10.300781 18.359375 10.933594 18.359375 C 11.5625 18.359375 12.074219 18.867188 12.074219 19.5 Z M 12.074219 19.5 "/>
<path style=" stroke:none;fill-rule:nonzero;fill:rgb(0%,0%,0%);fill-opacity:1;" d="M 26.699219 13.441406 C 26.699219 14.074219 26.1875 14.585938 25.558594 14.585938 C 24.925781 14.585938 24.414062 14.074219 24.414062 13.441406 C 24.414062 12.8125 24.925781 12.300781 25.558594 12.300781 C 26.1875 12.300781 26.699219 12.8125 26.699219 13.441406 Z M 26.699219 13.441406 "/>
<path style=" stroke:none;fill-rule:nonzero;fill:rgb(0%,0%,0%);fill-opacity:1;" d="M 14.585938 25.558594 C 14.585938 26.1875 14.074219 26.699219 13.441406 26.699219 C 12.8125 26.699219 12.300781 26.1875 12.300781 25.558594 C 12.300781 24.925781 12.8125 24.414062 13.441406 24.414062 C 14.074219 24.414062 14.585938 24.925781 14.585938 25.558594 Z M 14.585938 25.558594 "/>
<path style=" stroke:none;fill-rule:nonzero;fill:rgb(0%,0%,0%);fill-opacity:1;" d="M 26.699219 25.558594 C 26.699219 26.1875 26.1875 26.699219 25.558594 26.699219 C 24.925781 26.699219 24.414062 26.1875 24.414062 25.558594 C 24.414062 24.925781 24.925781 24.414062 25.558594 24.414062 C 26.1875 24.414062 26.699219 24.925781 26.699219 25.558594 Z M 26.699219 25.558594 "/>
<path style=" stroke:none;fill-rule:nonzero;fill:rgb(0%,0%,0%);fill-opacity:1;" d="M 14.585938 13.441406 C 14.585938 14.074219 14.074219 14.585938 13.441406 14.585938 C 12.8125 14.585938 12.300781 14.074219 12.300781 13.441406 C 12.300781 12.8125 12.8125 12.300781 13.441406 12.300781 C 14.074219 12.300781 14.585938 12.8125 14.585938 13.441406 Z M 14.585938 13.441406 "/>
</g>
</svg>
