<?xml version="1.0" encoding="UTF-8"?>
<svg xmlns="http://www.w3.org/2000/svg" xmlns:xlink="http://www.w3.org/1999/xlink" width="50pt" height="50pt" viewBox="0 0 50 50" version="1.1">
<g id="surface1">
<path style=" stroke:none;fill-rule:nonzero;fill:rgb(0%,0%,0%);fill-opacity:1;" d="M 48.914062 28.238281 C 48.160156 28.035156 47.335938 28.464844 47.121094 29.273438 L 47.085938 29.402344 L 43.695312 28.492188 C 43.90625 27.359375 44.019531 26.191406 44.019531 25 C 44.019531 23.808594 43.90625 22.640625 43.695312 21.507812 L 47.085938 20.597656 L 47.121094 20.726562 C 47.335938 21.535156 48.160156 21.960938 48.914062 21.761719 C 49.695312 21.550781 50.160156 20.75 49.949219 19.964844 L 49.125 16.882812 C 48.914062 16.101562 48.109375 15.636719 47.328125 15.847656 C 46.546875 16.058594 46.085938 16.859375 46.292969 17.640625 L 46.328125 17.769531 L 42.9375 18.675781 C 42.148438 16.441406 40.953125 14.398438 39.4375 12.632812 L 41.925781 10.144531 L 42.019531 10.238281 C 42.589844 10.808594 43.519531 10.808594 44.089844 10.238281 C 44.664062 9.664062 44.664062 8.738281 44.089844 8.167969 L 41.832031 5.910156 C 41.261719 5.335938 40.335938 5.335938 39.761719 5.910156 C 39.191406 6.480469 39.191406 7.410156 39.761719 7.980469 L 39.855469 8.074219 L 37.367188 10.5625 C 35.601562 9.046875 33.558594 7.851562 31.324219 7.0625 L 32.230469 3.671875 L 32.359375 3.707031 C 33.167969 3.925781 33.949219 3.421875 34.152344 2.671875 C 34.359375 1.890625 33.898438 1.085938 33.117188 0.875 L 30.03125 0.0507812 C 29.25 -0.160156 28.449219 0.304688 28.238281 1.085938 C 28.03125 1.867188 28.492188 2.671875 29.273438 2.878906 L 29.402344 2.914062 L 28.492188 6.304688 C 27.359375 6.09375 26.191406 5.980469 25 5.980469 C 23.808594 5.980469 22.640625 6.09375 21.507812 6.304688 L 20.597656 2.914062 L 20.726562 2.878906 C 21.507812 2.671875 21.96875 1.867188 21.761719 1.085938 C 21.550781 0.304688 20.75 -0.160156 19.96875 0.0507812 L 16.882812 0.875 C 16.101562 1.085938 15.640625 1.890625 15.847656 2.671875 C 16.050781 3.421875 16.832031 3.925781 17.640625 3.707031 L 17.769531 3.671875 L 18.675781 7.0625 C 16.441406 7.851562 14.398438 9.046875 12.632812 10.5625 L 10.144531 8.074219 L 10.238281 7.980469 C 10.808594 7.410156 10.808594 6.480469 10.238281 5.910156 C 9.667969 5.335938 8.738281 5.335938 8.167969 5.910156 L 5.910156 8.167969 C 5.335938 8.738281 5.335938 9.664062 5.910156 10.238281 C 6.480469 10.808594 7.410156 10.808594 7.980469 10.238281 L 8.074219 10.144531 L 10.5625 12.632812 C 9.046875 14.398438 7.851562 16.441406 7.0625 18.675781 L 3.671875 17.769531 L 3.707031 17.640625 C 3.914062 16.859375 3.453125 16.058594 2.671875 15.847656 C 1.890625 15.636719 1.085938 16.101562 0.875 16.882812 L 0.0507812 19.96875 C -0.160156 20.75 0.304688 21.550781 1.085938 21.761719 C 1.839844 21.964844 2.664062 21.535156 2.878906 20.726562 L 2.914062 20.597656 L 6.304688 21.507812 C 6.09375 22.640625 5.980469 23.808594 5.980469 25 C 5.980469 26.191406 6.09375 27.359375 6.304688 28.492188 L 2.914062 29.402344 L 2.878906 29.273438 C 2.664062 28.464844 1.839844 28.035156 1.085938 28.238281 C 0.304688 28.449219 -0.160156 29.25 0.0507812 30.03125 L 0.875 33.117188 C 1.085938 33.898438 1.886719 34.359375 2.671875 34.152344 C 3.453125 33.941406 3.914062 33.140625 3.707031 32.359375 L 3.671875 32.230469 L 7.0625 31.324219 C 7.851562 33.558594 9.046875 35.601562 10.5625 37.367188 L 8.074219 39.855469 L 7.980469 39.761719 C 7.410156 39.191406 6.480469 39.191406 5.910156 39.761719 C 5.335938 40.335938 5.335938 41.261719 5.910156 41.832031 L 8.167969 44.089844 C 8.738281 44.664062 9.664062 44.664062 10.238281 44.089844 C 10.808594 43.519531 10.808594 42.589844 10.238281 42.019531 L 10.144531 41.925781 L 12.632812 39.4375 C 14.398438 40.953125 16.441406 42.148438 18.675781 42.9375 L 17.769531 46.328125 L 17.640625 46.292969 C 16.832031 46.078125 16.050781 46.578125 15.847656 47.328125 C 15.640625 48.109375 16.101562 48.914062 16.882812 49.125 L 19.964844 49.949219 C 20.75 50.160156 21.550781 49.695312 21.761719 48.914062 C 21.96875 48.132812 21.507812 47.328125 20.726562 47.121094 L 20.597656 47.085938 L 21.507812 43.695312 C 22.640625 43.90625 23.808594 44.019531 25 44.019531 C 26.191406 44.019531 27.359375 43.90625 28.492188 43.695312 L 29.402344 47.085938 L 29.273438 47.121094 C 28.492188 47.328125 28.027344 48.132812 28.238281 48.914062 C 28.449219 49.695312 29.25 50.160156 30.03125 49.949219 L 33.117188 49.125 C 33.898438 48.914062 34.359375 48.109375 34.152344 47.328125 C 33.949219 46.578125 33.167969 46.074219 32.355469 46.292969 L 32.230469 46.328125 L 31.320312 42.9375 C 33.558594 42.148438 35.601562 40.953125 37.367188 39.4375 L 39.855469 41.925781 L 39.761719 42.019531 C 39.191406 42.589844 39.191406 43.519531 39.761719 44.089844 C 40.332031 44.664062 41.261719 44.664062 41.832031 44.089844 L 44.089844 41.832031 C 44.664062 41.261719 44.664062 40.335938 44.089844 39.761719 C 43.519531 39.191406 42.589844 39.191406 42.019531 39.761719 L 41.925781 39.855469 L 39.4375 37.367188 C 40.953125 35.601562 42.148438 33.558594 42.9375 31.324219 L 46.328125 32.230469 L 46.292969 32.359375 C 46.085938 33.140625 46.546875 33.941406 47.328125 34.152344 C 48.109375 34.359375 48.914062 33.898438 49.125 33.117188 L 49.949219 30.03125 C 50.160156 29.25 49.695312 28.449219 48.914062 28.238281 Z M 25 41.089844 C 16.128906 41.089844 8.910156 33.871094 8.910156 25 C 8.910156 16.128906 16.128906 8.910156 25 8.910156 C 33.871094 8.910156 41.089844 16.128906 41.089844 25 C 41.089844 33.871094 33.871094 41.089844 25 41.089844 Z M 25 41.089844 "/>
<path style=" stroke:none;fill-rule:nonzero;fill:rgb(0%,0%,0%);fill-opacity:1;" d="M 26.464844 14.015625 C 26.464844 14.824219 25.808594 15.480469 25 15.480469 C 24.191406 15.480469 23.535156 14.824219 23.535156 14.015625 C 23.535156 13.207031 24.191406 12.550781 25 12.550781 C 25.808594 12.550781 26.464844 13.207031 26.464844 14.015625 Z M 26.464844 14.015625 "/>
<path style=" stroke:none;fill-rule:nonzero;fill:rgb(0%,0%,0%);fill-opacity:1;" d="M 26.464844 35.984375 C 26.464844 36.792969 25.808594 37.449219 25 37.449219 C 24.191406 37.449219 23.535156 36.792969 23.535156 35.984375 C 23.535156 35.175781 24.191406 34.519531 25 34.519531 C 25.808594 34.519531 26.464844 35.175781 26.464844 35.984375 Z M 26.464844 35.984375 "/>
<path style=" stroke:none;fill-rule:nonzero;fill:rgb(0%,0%,0%);fill-opacity:1;" d="M 23.328125 28.136719 C 23.328125 28.945312 22.671875 29.601562 21.863281 29.601562 C 21.054688 29.601562 20.398438 28.945312 20.398438 28.136719 C 20.398438 27.328125 21.054688 26.671875 21.863281 26.671875 C 22.671875 26.671875 23.328125 27.328125 23.328125 28.136719 Z M 23.328125 28.136719 "/>
<path style=" stroke:none;fill-rule:nonzero;fill:rgb(0%,0%,0%);fill-opacity:1;" d="M 29.601562 28.136719 C 29.601562 28.945312 28.945312 29.601562 28.136719 29.601562 C 27.328125 29.601562 26.671875 28.945312 26.671875 28.136719 C 26.671875 27.328125 27.328125 26.671875 28.136719 26.671875 C 28.945312 26.671875 29.601562 27.328125 29.601562 28.136719 Z M 29.601562 28.136719 "/>
<path style=" stroke:none;fill-rule:nonzero;fill:rgb(0%,0%,0%);fill-opacity:1;" d="M 29.601562 21.863281 C 29.601562 22.671875 28.945312 23.328125 28.136719 23.328125 C 27.328125 23.328125 26.671875 22.671875 26.671875 21.863281 C 26.671875 21.054688 27.328125 20.398438 28.136719 20.398438 C 28.945312 20.398438 29.601562 21.054688 29.601562 21.863281 Z M 29.601562 21.863281 "/>
<path style=" stroke:none;fill-rule:nonzero;fill:rgb(0%,0%,0%);fill-opacity:1;" d="M 23.328125 21.863281 C 23.328125 22.671875 22.671875 23.328125 21.863281 23.328125 C 21.054688 23.328125 20.398438 22.671875 20.398438 21.863281 C 20.398438 21.054688 21.054688 20.398438 21.863281 20.398438 C 22.671875 20.398438 23.328125 21.054688 23.328125 21.863281 Z M 23.328125 21.863281 "/>
<path style=" stroke:none;fill-rule:nonzero;fill:rgb(0%,0%,0%);fill-opacity:1;" d="M 37.449219 25 C 37.449219 25.808594 36.792969 26.464844 35.984375 26.464844 C 35.175781 26.464844 34.519531 25.808594 34.519531 25 C 34.519531 24.191406 35.175781 23.535156 35.984375 23.535156 C 36.792969 23.535156 37.449219 24.191406 37.449219 25 Z M 37.449219 25 "/>
<path style=" stroke:none;fill-rule:nonzero;fill:rgb(0%,0%,0%);fill-opacity:1;" d="M 15.480469 25 C 15.480469 25.808594 14.824219 26.464844 14.015625 26.464844 C 13.207031 26.464844 12.550781 25.808594 12.550781 25 C 12.550781 24.191406 13.207031 23.535156 14.015625 23.535156 C 14.824219 23.535156 15.480469 24.191406 15.480469 25 Z M 15.480469 25 "/>
<path style=" stroke:none;fill-rule:nonzero;fill:rgb(0%,0%,0%);fill-opacity:1;" d="M 34.230469 17.234375 C 34.230469 18.042969 33.574219 18.699219 32.765625 18.699219 C 31.957031 18.699219 31.300781 18.042969 31.300781 17.234375 C 31.300781 16.425781 31.957031 15.769531 32.765625 15.769531 C 33.574219 15.769531 34.230469 16.425781 34.230469 17.234375 Z M 34.230469 17.234375 "/>
<path style=" stroke:none;fill-rule:nonzero;fill:rgb(0%,0%,0%);fill-opacity:1;" d="M 18.699219 32.765625 C 18.699219 33.574219 18.042969 34.230469 17.234375 34.230469 C 16.425781 34.230469 15.769531 33.574219 15.769531 32.765625 C 15.769531 31.957031 16.425781 31.300781 17.234375 31.300781 C 18.042969 31.300781 18.699219 31.957031 18.699219 32.765625 Z M 18.699219 32.765625 "/>
<path style=" stroke:none;fill-rule:nonzero;fill:rgb(0%,0%,0%);fill-opacity:1;" d="M 34.230469 32.765625 C 34.230469 33.574219 33.574219 34.230469 32.765625 34.230469 C 31.957031 34.230469 31.300781 33.574219 31.300781 32.765625 C 31.300781 31.957031 31.957031 31.300781 32.765625 31.300781 C 33.574219 31.300781 34.230469 31.957031 34.230469 32.765625 Z M 34.230469 32.765625 "/>
<path style=" stroke:none;fill-rule:nonzero;fill:rgb(0%,0%,0%);fill-opacity:1;" d="M 18.699219 17.234375 C 18.699219 18.042969 18.042969 18.699219 17.234375 18.699219 C 16.425781 18.699219 15.769531 18.042969 15.769531 17.234375 C 15.769531 16.425781 16.425781 15.769531 17.234375 15.769531 C 18.042969 15.769531 18.699219 16.425781 18.699219 17.234375 Z M 18.699219 17.234375 "/>
</g>
</svg>
